<svg xmlns="http://www.w3.org/2000/svg" viewBox="0 0 64 64">
  <!-- 烤架底座 -->
  <ellipse cx="32" cy="48" rx="24" ry="8" fill="#4A4A4A"/>
  <ellipse cx="32" cy="46" rx="22" ry="6" fill="#333"/>
  
  <!-- 烤架支架 -->
  <rect x="12" y="48" width="4" height="12" fill="#666" rx="1"/>
  <rect x="48" y="48" width="4" height="12" fill="#666" rx="1"/>
  
  <!-- 烤架网格 -->
  <ellipse cx="32" cy="42" rx="20" ry="5" fill="#222"/>
  <line x1="14" y1="42" x2="50" y2="42" stroke="#555" stroke-width="1.5"/>
  <line x1="16" y1="39" x2="48" y2="39" stroke="#555" stroke-width="1.5"/>
  <line x1="18" y1="45" x2="46" y2="45" stroke="#555" stroke-width="1.5"/>
  
  <!-- 火焰 -->
  <path d="M20 38 Q22 30 20 24 Q24 28 26 22 Q28 28 30 24 Q32 30 32 34" fill="#FF6B35" opacity="0.9"/>
  <path d="M32 38 Q34 30 32 24 Q36 28 38 22 Q40 28 42 24 Q44 30 44 34" fill="#FF6B35" opacity="0.9"/>
  <path d="M24 36 Q26 30 24 26 Q28 30 30 26 Q32 32 32 36" fill="#FFD93D" opacity="0.8"/>
  <path d="M34 36 Q36 30 34 26 Q38 30 40 26 Q42 32 42 36" fill="#FFD93D" opacity="0.8"/>
  
  <!-- 食物 - 牛排 -->
  <ellipse cx="24" cy="38" rx="6" ry="3" fill="#8B4513"/>
  <path d="M19 37 Q24 35 29 37" stroke="#5D2E0C" stroke-width="1" fill="none"/>
  <path d="M20 39 Q24 37 28 39" stroke="#5D2E0C" stroke-width="1" fill="none"/>
  
  <!-- 食物 - 香肠 -->
  <ellipse cx="40" cy="38" rx="7" ry="2.5" fill="#C65D3B"/>
  <path d="M34 37 Q40 35 46 37" stroke="#8B3A2F" stroke-width="0.8" fill="none"/>
  <path d="M35 39 Q40 37 45 39" stroke="#8B3A2F" stroke-width="0.8" fill="none"/>
  
  <!-- 烟雾 -->
  <path d="M22 20 Q20 16 22 12 Q24 16 22 20" fill="#999" opacity="0.4"/>
  <path d="M32 18 Q30 14 32 10 Q34 14 32 18" fill="#999" opacity="0.4"/>
  <path d="M42 20 Q40 16 42 12 Q44 16 42 20" fill="#999" opacity="0.4"/>
</svg>

